<?xml version="1.0" encoding="utf-8"?>
<!-- Generator: Adobe Illustrator 27.0.0, SVG Export Plug-In . SVG Version: 6.00 Build 0)  -->
<svg version="1.1" id="Capa_1" xmlns="http://www.w3.org/2000/svg" xmlns:xlink="http://www.w3.org/1999/xlink" x="0px" y="0px"
	 viewBox="0 0 1644.26 825.19" style="enable-background:new 0 0 1644.26 825.19;" xml:space="preserve">
<style type="text/css">
	.st0{fill:#FFFFFF;}
	.st1{fill:none;}
	.st2{font-family:'CooperBlack';}
	.st3{font-size:200px;}
</style>
<g>
	<g>
		<path class="st0" d="M129.84,595.33c0-144.66,0-289.27,0-433.85c124.32,0,248.6,0,372.84,0c0,144.66,0,289.27,0,433.85
			C378.35,595.33,254.07,595.33,129.84,595.33z M355.69,584.32c3.5-13.31,5.76-25.43,9.97-36.82c3.48-9.4,9.44-17.85,13.97-26.88
			c2.6-5.18,4.94-10.55,6.7-16.06c4.72-14.81,6.86-30.08,8.34-45.57c1.28-13.31,5.74-16.3,18.4-19.44
			c6.03-1.5,12.36-4.59,16.85-8.79c5.27-4.93,9.13-11.58,12.79-17.96c4.22-7.38,8.34-15.01,10.97-23.03
			c1.5-4.59,0.54-10.29-0.44-15.27c-0.56-2.83-3.13-5.45-5.27-7.72c-2.88-3.07-2.71-5.6-0.25-8.84c4.35-5.72,8.27-11.78,12.5-17.6
			c7.52-10.34,11.81-21.45,10.27-34.62c-0.81-6.89,0.13-13.98-0.41-20.92c-0.24-3.05-1.56-6.54-3.54-8.85
			c-10.21-11.97-25.02-15.41-39.13-19.72c-5.52-1.69-8.86-4.19-9.18-9.86c-0.45-8.01-4.6-13.89-10.09-19.21
			c-4.04-3.91-8.49-7.59-11.75-12.1c-10.61-14.67-23.84-24.56-42.4-26.6c-3.68-0.41-7.17-4.98-10.61-4.81
			c-21.4,1.02-42.86-3.42-64.02,6.94c-23.74,11.62-45.35,24.62-60.16,47.09c-6.54,9.93-12.4,20.51-20.17,29.39
			c-9.37,10.71-15.14,22.56-18.32,36.2c-5.88,25.22-12.11,50.52-26.77,72.31c-6.88,10.23-9.15,20.58-7.82,32.3
			c0.03,0.22-0.07,0.49,0.02,0.67c1.2,2.43,1.81,5.68,3.75,7.13c13.75,10.28,26.44,21.54,37.4,34.89
			c8.12,9.89,19.64,14.84,31.94,17.58c9.44,2.1,16.85-2.72,24.32-7.67c1.68-1.11,5.98-0.65,7.5,0.77c9.35,8.75,19.4,17.4,16.7,32.47
			c-0.14,0.79,0.36,1.69,0.64,2.84c3.3-0.32,6.42-0.62,10.43-1.01c-3.63,6.59-7,12.11-9.79,17.92c-3.16,6.57-0.32,12.28,2.97,18.54
			c5.21-5.61,7.65-13.76,19.08-11.97c-4.67,7.69-8.67,14.27-12.67,20.85c5.2-0.79,10.03-2.21,13.75-5.07
			c3.96-3.04,6.87-7.44,10.37-11.41c5.75,2.53,9.37,6.35,8.36,12.99c-0.97,6.41-2.08,12.8-3.44,19.13
			c-1.11,5.15-2.7,10.21-4.08,15.3c0.61,0.33,1.22,0.66,1.83,0.99c8.61-5.9,15.53-13.36,19.46-22.92
			c9.49-0.69,14.3,4.06,17.88,12.02C346.09,569.73,351.22,576.83,355.69,584.32z"/>
		<path d="M355.69,584.32c-4.47-7.49-9.6-14.59-13.13-22.42c-3.59-7.95-8.39-12.71-17.88-12.02c-3.92,9.56-10.85,17.02-19.46,22.92
			c-0.61-0.33-1.22-0.66-1.83-0.99c1.38-5.1,2.96-10.15,4.08-15.3c1.37-6.33,2.47-12.73,3.44-19.13c1.01-6.64-2.61-10.45-8.36-12.99
			c-3.51,3.96-6.42,8.37-10.37,11.41c-3.72,2.86-8.55,4.29-13.75,5.07c4-6.58,8-13.16,12.67-20.85
			c-11.44-1.78-13.88,6.36-19.08,11.97c-3.29-6.26-6.13-11.97-2.97-18.54c2.79-5.8,6.16-11.33,9.79-17.92
			c-4,0.39-7.13,0.69-10.43,1.01c-0.28-1.15-0.78-2.05-0.64-2.84c2.7-15.07-7.35-23.72-16.7-32.47c-1.52-1.42-5.83-1.89-7.5-0.77
			c-7.47,4.95-14.88,9.78-24.32,7.67c-12.29-2.74-23.81-7.69-31.94-17.58c-10.97-13.35-23.65-24.61-37.4-34.89
			c-1.94-1.45-2.55-4.71-3.75-7.13c-0.09-0.18,0-0.45-0.02-0.67c-1.34-11.72,0.94-22.07,7.82-32.3
			c14.66-21.79,20.9-47.09,26.77-72.31c3.18-13.64,8.95-25.5,18.32-36.2c7.77-8.88,13.63-19.46,20.17-29.39
			c14.81-22.47,36.41-35.48,60.16-47.09c21.16-10.35,42.61-5.91,64.02-6.94c3.44-0.16,6.92,4.4,10.61,4.81
			c18.57,2.05,31.79,11.94,42.4,26.6c3.26,4.51,7.71,8.18,11.75,12.1c5.49,5.32,9.64,11.2,10.09,19.21
			c0.32,5.67,3.66,8.17,9.18,9.86c14.11,4.31,28.92,7.75,39.13,19.72c1.97,2.31,3.3,5.8,3.54,8.85c0.55,6.94-0.4,14.03,0.41,20.92
			c1.55,13.17-2.75,24.28-10.27,34.62c-4.23,5.82-8.15,11.88-12.5,17.6c-2.47,3.24-2.64,5.77,0.25,8.84
			c2.14,2.27,4.71,4.9,5.27,7.72c0.98,4.98,1.95,10.68,0.44,15.27c-2.63,8.02-6.75,15.65-10.97,23.03
			c-3.65,6.38-7.52,13.03-12.79,17.96c-4.49,4.2-10.82,7.3-16.85,8.79c-12.66,3.14-17.13,6.13-18.4,19.44
			c-1.49,15.49-3.62,30.76-8.34,45.57c-1.76,5.51-4.1,10.89-6.7,16.06c-4.53,9.04-10.5,17.49-13.97,26.88
			C361.44,558.89,359.19,571.01,355.69,584.32z M311.47,350.34c-0.81,4.34-1.15,8.84-2.56,12.98c-1.98,5.83,0.12,7.92,5.71,8.14
			c16.4,0.64,32.8,1.4,49.21,1.96c1.95,0.07,4.1-0.46,5.88-1.31c12.07-5.75,24.1-11.58,36.08-17.53c6.64-3.3,13.46-6.39,19.61-10.47
			c4.31-2.87,7.7-7.17,11.28-11.03c0.67-0.73,0.9-3.03,0.33-3.57c-4.97-4.74-9.9-9.6-15.37-13.72c-4.77-3.59-10.42-5.99-15.31-9.43
			c-5.85-4.12-6.18-10.04-3.84-16.27c4.98-13.27,14.11-21.04,28.72-21.68c2.81-0.12,5.57-1.13,8.36-1.73
			c-0.03-0.73-0.05-1.45-0.08-2.18c-2.22-0.83-4.38-1.9-6.66-2.43c-6.78-1.57-13.54-3.42-20.42-4.25
			c-11.24-1.36-17.48-8.52-22.19-18.06c2.5,1.51,5,3.02,7.7,4.64c1.62-2.74,2.9-4.93,4.77-8.08c2.42,4.01,4.29,7.1,6.47,10.7
			c-2.82,0.57-4.45,0.91-6.09,1.24c0.01,0.5,0.03,1.01,0.04,1.51c4.35,0.8,8.7,1.59,13.05,2.39c0.56-0.63,1.13-1.27,1.69-1.9
			c-3.07-5.03-5.55-10.56-9.36-14.95c-4.68-5.41-11.14-9.31-15.61-14.85c-8.92-11.03-19.32-18.01-33.64-21.27
			c-18.88-4.31-37.78-8.04-56.69-4.38c-34.74,6.73-61.22,25.71-78.18,57.45c-4.18,7.82-9.31,15.46-15.41,21.84
			c-9.12,9.55-15.58,20.14-19.02,32.84c-5.23,19.27-9.62,38.81-19.22,56.67c-4.88,9.08-8.85,18.66-12.84,28.18
			c-1.26,3.01-1.24,6.55-1.8,9.85c0.88,0.31,1.76,0.63,2.63,0.94c10.16-11.63,13.38-27.52,22.66-39.79
			c-1.41,8.63-7.17,16.4-5.24,26.8c3.05-2.67,5.09-4.46,6.93-6.07c-0.73,7.2-2.28,14.26-1.91,21.22c0.4,7.55,2.31,15.07,4.05,22.48
			c2.7,11.52,9.53,21.03,20.85,23.5c9.99,2.17,20.89,0.35,31.36-0.18c1.73-0.09,4-2.28,4.89-4.07c5.87-11.69,7.83-23.75,3.17-36.49
			c-3.16-8.62-6.69-17.25-8.48-26.19c-3.18-15.84-5.15-31.93-7.68-47.9c-0.36-2.25-0.99-4.45-1.49-6.67
			c-0.67-0.02-1.35-0.04-2.02-0.06c-1.21,4.55-2.42,9.09-3.63,13.64c1.08-20.56,11.04-40.64-0.43-61.37
			c1.07-0.22,2.14-0.43,3.21-0.65c3.89,8.82,7.78,17.63,12.02,27.26c9.11-10.76,14.29-24.44,28.25-28.95
			c-6.44,11.2-13.71,21.69-18.72,33.18c-4.95,11.35-8.33,23.62-5.75,36.24c0.85,0.29,1.7,0.59,2.55,0.88
			c3.25-5.56,6.5-11.13,9.75-16.69c-0.09,4.2-1.58,7.72-2.47,11.38c-1.69,6.96-3.2,13.97-4.41,21.02c-0.23,1.37,1.25,3.04,1.95,4.57
			c1.52-0.73,3.47-1.08,4.47-2.25c2.69-3.14,4.97-6.63,7.32-9.85c0.42,4.59,0.81,8.77,1.2,12.96c4.39-0.61,8.78-1.22,13.84-1.93
			c-0.92,2.25-2.08,4.4-2.67,6.69c-0.95,3.64-2.03,7.37-2.06,11.08c-0.02,2.04,1.55,4.91,3.26,5.86c1.28,0.71,4.14-0.73,5.91-1.82
			c1.97-1.22,3.51-3.15,5.68-5.18c9.98,15.6,4.58,29.92-1.86,44.92c3.13-0.89,4.97-1.41,7.42-2.1c-0.92,2.05-1.41,3.31-2.03,4.5
			c-0.73,1.39-1.38,2.91-2.41,4.05c-11.67,12.9-12.3,28.4-10.44,44.43c0.21,1.8,1.06,4.45,2.31,4.94c1.42,0.56,4.19-0.3,5.38-1.51
			c2.96-3.02,5.36-6.59,7.97-9.96c1.06-1.37,2.07-2.78,3.11-4.17c-1.3,8.65-3.17,16.81-6.75,24.13
			c-3.43,7.02-8.65,13.15-13.09,19.68c0.63,0.39,1.27,0.78,1.9,1.17c13.56-6.57,21.66-17.58,25.59-32.35
			c0.5,7.68,0.15,14.93-0.55,22.14c-0.51,5.25,1.77,8.78,6.21,10.9c11.59,5.53,13.23,7.59,9.68,23.19
			c-0.99,4.36-1.93,8.73-3.17,14.33c15.77-10.44,21.37-88.32,16.14-102.55c-6.78,2.97-8.84,9.35-10.88,15.42
			c-1.96,5.85-3.08,11.99-4.57,18c-0.91-3.05-1.05-5.97-0.56-8.78c1.8-10.17,4.02-20.27,5.6-30.46c0.38-2.47-1.1-5.23-1.72-7.85
			c-1.56,1.63-3.1,3.29-4.71,4.87c-0.39,0.38-1.04,0.5-1.7,0.8c1.15-9.9,8.51-16.66,18.22-15.37c9.95,1.32,19.83,3.68,29.52,6.38
			c11.82,3.29,23.42,6.93,35.16,0.06c2.65-1.55,5.25-3.18,8.36-5.07c1.18,6.32,5.9,6.07,10.03,5.22
			c10.81-2.23,16.52-10.29,22.14-19.87c-2.6,0-4.07-0.4-5.18,0.06c-9.12,3.78-17.43,2.57-25.27-3.39c-4.09-3.11-8.4-2.54-12.53,0.25
			c-2.42,1.64-4.85,3.26-7.29,4.87c-4.89,3.23-9.35,3.58-13.93-0.98c-1.9-1.89-5.66-4.31-7.36-3.59
			c-9.15,3.87-17.13-1.22-25.63-2.14c-13.37-1.44-22.11-9.45-29.34-19.52C299.68,377.17,300.34,363.16,311.47,350.34z
			 M351.93,520.29c-0.7,0.15-1.4,0.29-2.09,0.44c-2.69-7.91-5.38-15.81-8.38-24.64c-5.44,14.32-1.72,59.09,10.18,61.78
			c1.33-4.93,2.09-10.12,4.11-14.75c5.73-13.15,12.24-25.97,17.97-39.13c7.37-16.94,5.93-33.73-2.12-50.12
			c-2.33-4.75-5.83-5.34-8.65-1.1c-2.36,3.56-4.42,8.01-4.64,12.17c-0.42,8.2,0.54,16.48,0.92,24.72c-0.47,0.14-0.93,0.29-1.4,0.43
			c-2.67-9.54-5.35-19.08-8.02-28.62c-9.8,13.99-2.84,26.17,3.61,39.95c-5.41-3.67-6.18-1.45-5.45,2.04
			C349.15,509.09,350.59,514.68,351.93,520.29z M394.05,378.84c0.51-0.6,1.02-1.21,1.53-1.81c3.17,2.13,6.33,4.28,9.51,6.4
			c6.7,4.48,12.96,9.97,20.23,13.18c12.55,5.54,21.79-0.15,22.46-12.67c0.46-8.58-4.5-14.86-10.8-19.08
			c-2.65-1.78-8.16,0.67-12.36,1.26c-4.18,0.58-8.34,1.27-12.52,1.84c-9.27,1.26-18.73,1.7-27.74,3.97
			c-7.12,1.79-8.36,6.16-6.05,13.76c3.87-1.08,7.76-2.17,12.56-3.51c0,5.13,0,8.96,0,12.88c3.81-0.5,6.98-0.91,10.15-1.33
			c0.41,0.83,0.82,1.65,1.22,2.48c-7.19,4.05-14.38,8.09-21.57,12.14c0.39,0.89,0.78,1.79,1.17,2.68
			c13.08-3.98,25.39-11.81,40.09-8.49c-2.6-1.91-5.2-2.38-7.62-3.31c-2.21-0.85-4.64-1.8-6.24-3.42c-3.4-3.44-6.34-7.34-9.42-11.08
			C397.06,382.8,395.58,380.8,394.05,378.84z M420.73,299.49c-2.51-15.06,0.4-18.24,14.96-17.92c3.35,0.07,6.79,1.28,10.02,0.82
			c5.21-0.74,10.28-2.43,16.17-3.9c-4.32-8.03-9.63-10.3-16.11-9.27c-7.73,1.24-15.49,2.69-22.97,4.95
			c-3.89,1.18-7.68,3.8-10.66,6.66c-4.75,4.57-8.86,10.37-6.92,17.23c1.85,6.55,8.74,6.82,14.34,8.2c0.87,0.21,1.74,0.46,2.62,0.62
			c5.83,1.09,12.58-2.38,16.03-8.32C432.43,298.86,426.75,299.17,420.73,299.49z M336.35,376.21c-0.1,0.82-0.19,1.64-0.29,2.46
			c8.55,10.22,29.47,14.92,38.51,8.09c-4.9-4.16-7.77-11.43-16.51-7.62c-1.32,0.57-3.37-0.67-5.11-0.9
			C347.42,377.52,341.89,376.88,336.35,376.21z"/>
		<path class="st0" d="M311.47,350.34c-11.13,12.83-11.79,26.84-2.66,39.54c7.23,10.06,15.97,18.07,29.34,19.52
			c8.5,0.92,16.48,6.01,25.63,2.14c1.69-0.72,5.46,1.7,7.36,3.59c4.58,4.56,9.04,4.21,13.93,0.98c2.44-1.61,4.87-3.24,7.29-4.87
			c4.13-2.79,8.44-3.35,12.53-0.25c7.84,5.96,16.15,7.17,25.27,3.39c1.11-0.46,2.57-0.06,5.18-0.06
			c-5.63,9.58-11.34,17.64-22.14,19.87c-4.13,0.85-8.85,1.1-10.03-5.22c-3.11,1.89-5.72,3.52-8.36,5.07
			c-11.74,6.87-23.34,3.23-35.16-0.06c-9.69-2.7-19.57-5.05-29.52-6.38c-9.72-1.29-17.07,5.47-18.22,15.37
			c0.66-0.3,1.31-0.42,1.7-0.8c1.61-1.58,3.15-3.24,4.71-4.87c0.62,2.63,2.1,5.38,1.72,7.85c-1.58,10.2-3.8,20.3-5.6,30.46
			c-0.5,2.81-0.35,5.73,0.56,8.78c1.49-6.01,2.61-12.15,4.57-18c2.04-6.07,4.09-12.45,10.88-15.42
			c5.23,14.23-0.38,92.11-16.14,102.55c1.24-5.6,2.17-9.97,3.17-14.33c3.55-15.61,1.91-17.67-9.68-23.19
			c-4.44-2.12-6.71-5.65-6.21-10.9c0.7-7.21,1.05-14.46,0.55-22.14c-3.93,14.76-12.03,25.78-25.59,32.35
			c-0.63-0.39-1.27-0.78-1.9-1.17c4.44-6.52,9.66-12.66,13.09-19.68c3.58-7.32,5.44-15.47,6.75-24.13c-1.03,1.39-2.05,2.8-3.11,4.17
			c-2.61,3.36-5.01,6.93-7.97,9.96c-1.19,1.22-3.96,2.07-5.38,1.51c-1.25-0.49-2.1-3.15-2.31-4.94
			c-1.85-16.04-1.22-31.53,10.44-44.43c1.03-1.14,1.68-2.66,2.41-4.05c0.63-1.19,1.11-2.45,2.03-4.5c-2.45,0.69-4.29,1.22-7.42,2.1
			c6.44-15,11.84-29.32,1.86-44.92c-2.17,2.04-3.71,3.96-5.68,5.18c-1.77,1.1-4.64,2.53-5.91,1.82c-1.71-0.95-3.28-3.83-3.26-5.86
			c0.03-3.7,1.11-7.44,2.06-11.08c0.6-2.29,1.75-4.44,2.67-6.69c-5.06,0.71-9.45,1.32-13.84,1.93c-0.39-4.18-0.77-8.37-1.2-12.96
			c-2.34,3.21-4.63,6.7-7.32,9.85c-1,1.17-2.96,1.52-4.47,2.25c-0.69-1.53-2.18-3.2-1.95-4.57c1.21-7.05,2.71-14.07,4.41-21.02
			c0.89-3.66,2.37-7.18,2.47-11.38c-3.25,5.56-6.5,11.13-9.75,16.69c-0.85-0.29-1.7-0.59-2.55-0.88
			c-2.57-12.62,0.8-24.89,5.75-36.24c5.01-11.48,12.28-21.98,18.72-33.18c-13.96,4.52-19.13,18.19-28.25,28.95
			c-4.25-9.63-8.14-18.45-12.02-27.26c-1.07,0.22-2.14,0.43-3.21,0.65c11.47,20.73,1.51,40.81,0.43,61.37
			c1.21-4.55,2.42-9.09,3.63-13.64c0.67,0.02,1.35,0.04,2.02,0.06c0.5,2.22,1.14,4.42,1.49,6.67c2.53,15.98,4.5,32.06,7.68,47.9
			c1.8,8.94,5.33,17.57,8.48,26.19c4.66,12.73,2.7,24.8-3.17,36.49c-0.9,1.79-3.16,3.98-4.89,4.07
			c-10.47,0.53-21.38,2.35-31.36,0.18c-11.32-2.46-18.15-11.97-20.85-23.5c-1.74-7.42-3.65-14.93-4.05-22.48
			c-0.37-6.96,1.19-14.02,1.91-21.22c-1.84,1.61-3.88,3.39-6.93,6.07c-1.94-10.4,3.82-18.18,5.24-26.8
			c-9.27,12.27-12.49,28.16-22.66,39.79c-0.88-0.31-1.76-0.63-2.63-0.94c0.57-3.3,0.54-6.84,1.8-9.85
			c3.99-9.52,7.96-19.1,12.84-28.18c9.6-17.86,13.99-37.39,19.22-56.67c3.44-12.7,9.9-23.29,19.02-32.84
			c6.1-6.38,11.23-14.02,15.41-21.84c16.96-31.75,43.44-50.73,78.18-57.45c18.91-3.66,37.82,0.07,56.69,4.38
			c14.32,3.27,24.72,10.25,33.64,21.27c4.48,5.54,10.93,9.44,15.61,14.85c3.8,4.39,6.29,9.92,9.36,14.95
			c-0.56,0.63-1.13,1.27-1.69,1.9c-4.35-0.8-8.7-1.59-13.05-2.39c-0.01-0.5-0.03-1.01-0.04-1.51c1.64-0.33,3.27-0.67,6.09-1.24
			c-2.18-3.6-4.05-6.69-6.47-10.7c-1.86,3.16-3.15,5.34-4.77,8.08c-2.69-1.62-5.19-3.13-7.7-4.64c4.71,9.54,10.95,16.71,22.19,18.06
			c6.88,0.83,13.64,2.68,20.42,4.25c2.29,0.53,4.44,1.61,6.66,2.43c0.03,0.73,0.05,1.45,0.08,2.18c-2.78,0.6-5.55,1.6-8.36,1.73
			c-14.61,0.64-23.74,8.41-28.72,21.68c-2.34,6.23-2.01,12.15,3.84,16.27c4.89,3.45,10.54,5.84,15.31,9.43
			c5.47,4.12,10.4,8.98,15.37,13.72c0.56,0.54,0.34,2.84-0.33,3.57c-3.58,3.86-6.97,8.16-11.28,11.03
			c-6.14,4.08-12.97,7.18-19.61,10.47c-11.98,5.95-24.01,11.79-36.08,17.53c-1.78,0.85-3.93,1.37-5.88,1.31
			c-16.41-0.56-32.8-1.32-49.21-1.96c-5.59-0.22-7.69-2.31-5.71-8.14C310.31,359.18,310.65,354.68,311.47,350.34z M316.73,242.4
			c-11.89,1.21-21.4,8.45-29,19.73c20.49,6.09,37.94-2.37,57.48-7.75c-6.11-2.16-10.33-4.11-7.49-10.41
			c0.33-0.73-1.32-2.68-2.41-3.66c-4.44-4-9.02-7.85-14.9-12.93C319.25,232.07,318.18,236.43,316.73,242.4z M334.74,327.38
			c14.08,0.82,37.35-20.73,36.09-33.03c-3.97,4.67-7.32,9.5-11.56,13.36c-4.65,4.22-10.65,4.68-17.65,3.8
			c1.57-4.68,2.86-8.53,3.66-10.92c-9.07,6.07-18.84,12.61-28.39,19c6.59,0.32,13.81,0.67,21.96,1.06
			C337.12,323.48,336.12,325.12,334.74,327.38z M273.91,235.58c0.29,0.88,0.58,1.76,0.86,2.65c4.08-1.13,8.5-1.61,12.15-3.55
			c5.82-3.08,11.2-6.04,18.28-4.87c4.75,0.78,6.28-3.56,5.41-7.1c-0.55-2.23-4.34-5.73-5.78-5.34
			C292.9,220.57,281.98,225.86,273.91,235.58z"/>
		<path class="st0" d="M351.93,520.29c-1.33-5.61-2.78-11.2-3.96-16.84c-0.73-3.49,0.04-5.71,5.45-2.04
			c-6.46-13.78-13.41-25.96-3.61-39.95c2.67,9.54,5.35,19.08,8.02,28.62c0.47-0.14,0.93-0.29,1.4-0.43
			c-0.39-8.24-1.34-16.52-0.92-24.72c0.21-4.16,2.27-8.61,4.64-12.17c2.82-4.25,6.32-3.65,8.65,1.1c8.05,16.4,9.49,33.18,2.12,50.12
			c-5.72,13.16-12.23,25.98-17.97,39.13c-2.02,4.63-2.77,9.82-4.11,14.75c-11.9-2.69-15.62-47.46-10.18-61.78
			c3,8.83,5.69,16.74,8.38,24.64C350.53,520.58,351.23,520.43,351.93,520.29z"/>
		<path class="st0" d="M394.05,378.84c1.53,1.96,3.01,3.96,4.59,5.88c3.08,3.74,6.03,7.64,9.42,11.08c1.6,1.62,4.03,2.57,6.24,3.42
			c2.42,0.93,5.02,1.4,7.62,3.31c-14.7-3.32-27.01,4.52-40.09,8.49c-0.39-0.89-0.78-1.79-1.17-2.68
			c7.19-4.05,14.38-8.09,21.57-12.14c-0.41-0.83-0.82-1.65-1.22-2.48c-3.17,0.41-6.34,0.83-10.15,1.33c0-3.92,0-7.75,0-12.88
			c-4.8,1.34-8.68,2.42-12.56,3.51c-2.31-7.59-1.07-11.97,6.05-13.76c9.01-2.27,18.48-2.7,27.74-3.97
			c4.18-0.57,8.34-1.26,12.52-1.84c4.2-0.58,9.71-3.03,12.36-1.26c6.3,4.22,11.26,10.5,10.8,19.08
			c-0.67,12.53-9.91,18.22-22.46,12.67c-7.26-3.21-13.52-8.71-20.23-13.18c-3.18-2.12-6.34-4.27-9.51-6.4
			C395.07,377.63,394.56,378.24,394.05,378.84z"/>
		<path class="st0" d="M420.73,299.49c6.02-0.32,11.7-0.63,17.47-0.94c-3.45,5.94-10.2,9.41-16.03,8.32
			c-0.88-0.16-1.75-0.41-2.62-0.62c-5.6-1.38-12.48-1.64-14.34-8.2c-1.94-6.86,2.17-12.66,6.92-17.23
			c2.98-2.86,6.76-5.48,10.66-6.66c7.47-2.26,15.24-3.71,22.97-4.95c6.48-1.04,11.79,1.23,16.11,9.27
			c-5.88,1.48-10.96,3.17-16.17,3.9c-3.23,0.46-6.67-0.75-10.02-0.82C421.13,281.25,418.23,284.43,420.73,299.49z"/>
		<path class="st0" d="M336.35,376.21c5.54,0.67,11.08,1.31,16.6,2.03c1.74,0.23,3.79,1.47,5.11,0.9c8.74-3.8,11.61,3.47,16.51,7.62
			c-9.05,6.83-29.97,2.13-38.51-8.09C336.16,377.85,336.25,377.03,336.35,376.21z"/>
		<path d="M316.73,242.4c1.46-5.96,2.52-10.32,3.67-15.02c5.88,5.08,10.46,8.93,14.9,12.93c1.09,0.98,2.74,2.93,2.41,3.66
			c-2.83,6.3,1.38,8.25,7.49,10.41c-19.54,5.37-36.99,13.83-57.48,7.75C295.33,250.84,304.84,243.6,316.73,242.4z M297.56,254.7
			c0.6,0.9,1.2,1.8,1.79,2.69c4.51-3.08,9.02-6.17,13.53-9.25c-0.51-0.75-1.01-1.51-1.52-2.26
			C306.77,248.82,302.17,251.76,297.56,254.7z"/>
		<path d="M334.74,327.38c1.38-2.26,2.38-3.9,4.11-6.74c-8.15-0.39-15.37-0.74-21.96-1.06c9.55-6.39,19.32-12.93,28.39-19
			c-0.8,2.39-2.09,6.24-3.66,10.92c7.01,0.89,13,0.43,17.65-3.8c4.24-3.85,7.59-8.69,11.56-13.36
			C372.09,306.65,348.82,328.2,334.74,327.38z"/>
		<path d="M273.91,235.58c8.07-9.73,18.99-15.01,30.92-18.21c1.44-0.39,5.23,3.11,5.78,5.34c0.87,3.53-0.66,7.88-5.41,7.1
			c-7.09-1.17-12.47,1.8-18.28,4.87c-3.65,1.93-8.08,2.41-12.15,3.55C274.48,237.35,274.2,236.47,273.91,235.58z"/>
		<path class="st0" d="M297.56,254.7c4.6-2.94,9.21-5.88,13.81-8.82c0.51,0.75,1.01,1.51,1.52,2.26c-4.51,3.08-9.02,6.17-13.53,9.25
			C298.76,256.5,298.16,255.6,297.56,254.7z"/>
	</g>
</g>
<rect x="522.48" y="195.46" class="st1" width="1064.62" height="529.23"/>
<text transform="matrix(1 0 0 1 522.4845 328.9575)"><tspan x="0" y="0" class="st2 st3">Golden</tspan><tspan x="0" y="240" class="st2 st3">Retriever</tspan></text>
</svg>
